http://kickass.to/search/the%20walking%20dead/?rss=1
HTTP/1.1 200 OK
Server: nginx/1.5.13
Date: Tue, 22 Jul 2014 15:52:32 GMT
Content-Type: application/rss+xml; charset=utf-8
Connection: close
X-Powered-By: PHP/5.5.13-pl0-gentoo
Set-Cookie: lang_detected=en; expires=Wed, 22-Jul-2015 15:57:13 GMT; Max-Age=31536000; path=/; domain=.kickass.to
Set-Cookie: lang_code=en; expires=Wed, 22-Jul-2015 15:57:13 GMT; Max-Age=31536000; path=/; domain=.kickass.to
Cache-Control: public
Set-Cookie: country_code=US; Path=/;

<?xml version="1.0" encoding="UTF-8"?>
<rss version="2.0" xmlns:torrent="http://xmlns.ezrss.it/0.1/">
<channel>
    <title>Torrents by keyword "the walking dead" - KickassTorrents</title>
    <link>http://kickass.to/</link>
    <description>Torrents by keyword "the walking dead"</description>
    <item>
        <title>The Walking Dead Season 2 Episode 4-SC</title>
      <description><![CDATA[[center][img]http://i.imgur.com/CT80oWM.jpg[/img]

[size=200][color=purple][b]DESCRIPTION[/b][/color][/size]

[quote][b]The Walking Dead: Season Two continues the story of Clementine, a young girl orphaned by the undead apocalypse. Left to fend for herself, she has been forced to learn how to survive in a world gone mad.

Many months have passed since the events seen in Season One of The Walking Dead, and Clementine is searching for safety. But what can an ordinary child do to stay alive when the living can be just as bad – and sometimes worse – than the dead? As Clementine, you will be tested by situations and dilemmas that will test your morals and your instinct for survival. Your decisions and actions will change the story around you, in this sequel to 2012’s Game of the Year.
Key Features

Decisions you made in Season One and in 400 Days will affect your story in Season Two
Based on Robert Kirkman’s award-winning comic books
Play as Clementine, an orphaned girl forced to grow up fast by the world around her
The sequel to 2012’s Game of the Year[/quote][/b]


[quote][color=red][b]Release name: The.Walking.Dead-Season.2.Episode.4-SC
Size: 758 MB
Language: MULTI[/b][/color][/quote]


[size=200][color=purple][b]SCREEN SHOTS[/b][/color][/size]

[img]http://i.imgur.com/qPyfecD.jpg[/img]
[img]http://i.imgur.com/A5a5CbB.jpg[/img]
[img]http://i.imgur.com/Ll8fRXI.jpg[/img]

[size=200][color=purple][b]NFO[/b][/color][/size]

[quote]SKIDROW CRACK PRESENTS
The Walking Dead Season 2-Episode 4-SKIDROWCRACK

Install notes:

1. Unrar
2. Copy all contents to \The Walking Dead\Pack
3. Play
4. Support the software developers. If you like this game, BUY IT

GREETINGS

To all friends of the family and honorable rival groups[/quote][/center]]]></description>
        <category>Games - PC</category>
      <author>http://kickass.to/user/SKIDROWCRACK/</author>        <link>http://kickass.to/the-walking-dead-season-2-episode-4-sc-t9363764.html</link>
        <guid>http://kickass.to/the-walking-dead-season-2-episode-4-sc-t9363764.html</guid>
        <pubDate>Tue, 22 Jul 2014 15:39:59 +0000</pubDate>
        <torrent:contentLength>795441435</torrent:contentLength>
        <torrent:infoHash>73C4DC2C1C016E73A5C2CF04A02D3E80E4C25C3C</torrent:infoHash>
        <torrent:magnetURI><![CDATA[magnet:?xt=urn:btih:73C4DC2C1C016E73A5C2CF04A02D3E80E4C25C3C&dn=the+walking+dead+season+2+episode+4+sc&tr=udp%3A%2F%2Fopen.demonii.com%3A1337%2Fannounce]]></torrent:magnetURI>
        <torrent:seeds>1</torrent:seeds>
        <torrent:peers>77</torrent:peers>
        <torrent:verified>1</torrent:verified>
        <torrent:fileName>the.walking.dead.season.2.episode.4.sc.torrent</torrent:fileName>
        <enclosure url="http://torcache.net/torrent/73C4DC2C1C016E73A5C2CF04A02D3E80E4C25C3C.torrent?title=[kickass.to]the.walking.dead.season.2.episode.4.sc" length="795441435" type="application/x-bittorrent" />
    </item>
    <item>
        <title>The Walking Dead - Temporada 4 [HDTV 1080p][Cap.416][AC3 5.1 Español Castellano]</title>
        <category>TV</category>
      <author>http://kickass.to/user/dandysirgen/</author>        <link>http://kickass.to/the-walking-dead-temporada-4-hdtv-1080p-cap-416-ac3-5-1-español-castellano-t9363555.html</link>
        <guid>http://kickass.to/the-walking-dead-temporada-4-hdtv-1080p-cap-416-ac3-5-1-español-castellano-t9363555.html</guid>
        <pubDate>Tue, 22 Jul 2014 14:47:07 +0000</pubDate>
        <torrent:contentLength>1928074776</torrent:contentLength>
        <torrent:infoHash>CAA634E035E41127376E154B7480B3229A49111B</torrent:infoHash>
        <torrent:magnetURI><![CDATA[magnet:?xt=urn:btih:CAA634E035E41127376E154B7480B3229A49111B&dn=the+walking+dead+temporada+4+hdtv+1080p+cap+416+ac3+5+1+espa%C3%B1ol+castellano&tr=udp%3A%2F%2Fopen.demonii.com%3A1337%2Fannounce]]></torrent:magnetURI>
        <torrent:seeds>111</torrent:seeds>
        <torrent:peers>180</torrent:peers>
        <torrent:verified>0</torrent:verified>
        <torrent:fileName>the.walking.dead.temporada.4.hdtv.1080p.cap.416.ac3.5.1.espa%C3%B1ol.castellano.torrent</torrent:fileName>
        <enclosure url="http://torcache.net/torrent/CAA634E035E41127376E154B7480B3229A49111B.torrent?title=[kickass.to]the.walking.dead.temporada.4.hdtv.1080p.cap.416.ac3.5.1.espa%C3%B1ol.castellano" length="1928074776" type="application/x-bittorrent" />
    </item>
    <item>
        <title>The Walking Dead Season2 Ep 1+2+3+4 PC game ^^nosTEAM^^</title>
      <description><![CDATA[[img]http://s19.postimg.org/6yx6dq32r/walkingdead_s2.jpg[/img]



Games : Windows : Full Game : English

About the Game:

The Walking Dead: Season Two is a episodic graphic adventure based on Robert Kirkman&#039;s The Walking Dead comic book series and developed by Telltale Games.
The game will employ the same narrative structure as the first season, where player choice will have a permanent impact on future story elements.
Telltale plans have the player choices recorded in save files from the first season and the additional episode 400 Days, to carry over into the second season.
Clementine, who was the player&#039;s companion during the first season, will become the player-character in Season Two, and the fate of Kenny, 
a non-player character that appeared to die during the last act, &quot;will be explored&quot;, according to Telltale......


A continuing story of adventure horror spanning across 5 episodes:

Episode 1 - &quot;All That Remains&quot; (included)
Episode 2 - &quot;A House Divided&quot; (included)
Episode 3 - &quot;In Harm&#039;s Way&quot; (included) 
Episode 4 - &quot;Amid The Ruins&quot; (included) 
Episode 5 - (Coming soon...)


PC System Requirements

 Minimum:
 OS: XP Service Pack 3
 Processor: 2.0 GHz Pentium 4 or equivalent
 Memory: 3 GB RAM
 Hard Disk Space: 4 GB Space Free
 Video Card: ATI or NVidia card 512 MB RAM ( Not recommended for Intel integrated graphics )
 DirectX: Direct X 9.0c
 Sound: Direct X 9.0c sound device 

Notes:
This game is already cracked - just install and play.
Your saved data is not in game folder - if you have played previous episodes you can continue game after installing is done.

More info and support on www.nosteam.ro
http://www.nosteam.ro/index.php?topic=3315.msg87429#msg87429




How to install:
After download is done:
- open (executable file) ,
- choose location ,
- click install ,
- wait until is done 
- play game from desktop shortcut.



If you like this game torrent seed it to others.
Enjoy .



[img]http://s19.postimg.org/8f8ovv5zn/WalkingDead2_a.jpg[/img]

[img]http://s19.postimg.org/x9s6pxqtv/Walking_Dead2_b.jpg[/img]

[img]http://s19.postimg.org/qnmpfr1ub/Walking_Dead2_c.jpg[/img]]]></description>
        <category>Games - PC</category>
      <author>http://kickass.to/user/%5E%5EnosTEAM%5E%5E/</author>        <link>http://kickass.to/the-walking-dead-season2-ep-1-2-3-4-pc-game-nosteam-t9363060.html</link>
        <guid>http://kickass.to/the-walking-dead-season2-ep-1-2-3-4-pc-game-nosteam-t9363060.html</guid>
        <pubDate>Tue, 22 Jul 2014 12:31:53 +0000</pubDate>
        <torrent:contentLength>3163979561</torrent:contentLength>
        <torrent:infoHash>25EEB63252E2E290EA7C99A6B0B31CFFAD120DC0</torrent:infoHash>
        <torrent:magnetURI><![CDATA[magnet:?xt=urn:btih:25EEB63252E2E290EA7C99A6B0B31CFFAD120DC0&dn=the+walking+dead+season2+ep+1+2+3+4+pc+game+nosteam&tr=udp%3A%2F%2Fopen.demonii.com%3A1337%2Fannounce]]></torrent:magnetURI>
        <torrent:seeds>114</torrent:seeds>
        <torrent:peers>1223</torrent:peers>
        <torrent:verified>1</torrent:verified>
        <torrent:fileName>the.walking.dead.season2.ep.1.2.3.4.pc.game.nosteam.torrent</torrent:fileName>
        <enclosure url="http://torcache.net/torrent/25EEB63252E2E290EA7C99A6B0B31CFFAD120DC0.torrent?title=[kickass.to]the.walking.dead.season2.ep.1.2.3.4.pc.game.nosteam" length="3163979561" type="application/x-bittorrent" />
    </item>
    <item>
        <title>The.Walking.Dead.S04E00.Inside.the.Walking.Dead.PROPER.720p.HDTV.x264-BATV</title>
      <description><![CDATA[[b]The Walking Dead

[IMG]http://i.imgur.com/ynPyj8V.jpg[/IMG]

Genre: Drama, Horror, Thriller 
Year: 2014 
Country: USA 
Runtime: 42 min 
Director: Frank Darabont 
Cast: Andrew Lincoln, Steven Yeun, Chandler Riggs, Norman Reedus, Lauren Cohan and More. 

.: Plot:. 
The Walking Dead tells the story of the months and years that follow after a zombie apocalypse. It follows a group of survivors, led by police officer Rick Grimes, who travel in search of a safe and secure home. The comic goes on to explore the challenges of life in a world overrun by zombies who take a toll on the survivors, and sometimes the interpersonal conflicts present a greater danger to their continuing survival than the zombies that roam the country. Over time, the characters are changed by the constant exposure to death and some grow willing to do anything to survive. [/b]]]></description>
        <category>TV</category>
      <author>http://kickass.to/user/Thhaque/</author>        <link>http://kickass.to/the-walking-dead-s04e00-inside-the-walking-dead-proper-720p-hdtv-x264-batv-t9361749.html</link>
        <guid>http://kickass.to/the-walking-dead-s04e00-inside-the-walking-dead-proper-720p-hdtv-x264-batv-t9361749.html</guid>
        <pubDate>Tue, 22 Jul 2014 04:30:02 +0000</pubDate>
        <torrent:contentLength>1548710361</torrent:contentLength>
        <torrent:infoHash>C57D822EF23528CC034E5C1BF6F6C88D52262CF7</torrent:infoHash>
        <torrent:magnetURI><![CDATA[magnet:?xt=urn:btih:C57D822EF23528CC034E5C1BF6F6C88D52262CF7&dn=the+walking+dead+s04e00+inside+the+walking+dead+proper+720p+hdtv+x264+batv&tr=udp%3A%2F%2F12.rarbg.me%3A80%2Fannounce&tr=udp%3A%2F%2Fopen.demonii.com%3A1337]]></torrent:magnetURI>
        <torrent:seeds>25</torrent:seeds>
        <torrent:peers>42</torrent:peers>
        <torrent:verified>1</torrent:verified>
        <torrent:fileName>the.walking.dead.s04e00.inside.the.walking.dead.proper.720p.hdtv.x264.batv.torrent</torrent:fileName>
        <enclosure url="http://torcache.net/torrent/C57D822EF23528CC034E5C1BF6F6C88D52262CF7.torrent?title=[kickass.to]the.walking.dead.s04e00.inside.the.walking.dead.proper.720p.hdtv.x264.batv" length="1548710361" type="application/x-bittorrent" />
    </item>
    <item>
        <title>The Walking Dead S04 Special Inside The Walking Dead Walker University HDTV x264-W4F [eztv]</title>
      <description><![CDATA[Help us by donating with Bitcoin: 1EZTVaGQ6UsjYJ9fwqGnd45oZ6HGT7WKZd

#EZTV -&gt; To avoid fakes, ALWAYS check that the torrent was added by eztv.

https://eztv.it/

Episode: The Walking Dead S04 Special Inside The Walking Dead Walker University HDTV x264-W4F
Screenshots:


]]></description>
        <category>TV</category>
      <author>http://kickass.to/user/EZTV/</author>        <link>http://kickass.to/the-walking-dead-s04-special-inside-the-walking-dead-walker-university-hdtv-x264-w4f-eztv-t9361700.html</link>
        <guid>http://kickass.to/the-walking-dead-s04-special-inside-the-walking-dead-walker-university-hdtv-x264-w4f-eztv-t9361700.html</guid>
        <pubDate>Tue, 22 Jul 2014 04:20:58 +0000</pubDate>
        <torrent:contentLength>444375810</torrent:contentLength>
        <torrent:infoHash>FE293C73F97C0BCD79A172D96AF31A28102F11CC</torrent:infoHash>
        <torrent:magnetURI><![CDATA[magnet:?xt=urn:btih:FE293C73F97C0BCD79A172D96AF31A28102F11CC&dn=the+walking+dead+s04+special+inside+the+walking+dead+walker+university+hdtv+x264+w4f+eztv&tr=udp%3A%2F%2Fopen.demonii.com%3A1337%2Fannounce]]></torrent:magnetURI>
        <torrent:seeds>2143</torrent:seeds>
        <torrent:peers>3335</torrent:peers>
        <torrent:verified>1</torrent:verified>
        <torrent:fileName>the.walking.dead.s04.special.inside.the.walking.dead.walker.university.hdtv.x264.w4f.eztv.torrent</torrent:fileName>
        <enclosure url="http://torcache.net/torrent/FE293C73F97C0BCD79A172D96AF31A28102F11CC.torrent?title=[kickass.to]the.walking.dead.s04.special.inside.the.walking.dead.walker.university.hdtv.x264.w4f.eztv" length="444375810" type="application/x-bittorrent" />
    </item>
    <item>
        <title>The Walking Dead S04 Special Inside The Walking Dead Walker University 720p HDTV x264-W4F [eztv]</title>
      <description><![CDATA[Help us by donating with Bitcoin: 1EZTVaGQ6UsjYJ9fwqGnd45oZ6HGT7WKZd

#EZTV -&gt; To avoid fakes, ALWAYS check that the torrent was added by eztv.

https://eztv.it/

Episode: The Walking Dead S04 Special Inside The Walking Dead Walker University 720p HDTV x264-W4F
Screenshots:


]]></description>
        <category>TV</category>
      <author>http://kickass.to/user/EZTV/</author>        <link>http://kickass.to/the-walking-dead-s04-special-inside-the-walking-dead-walker-university-720p-hdtv-x264-w4f-eztv-t9361695.html</link>
        <guid>http://kickass.to/the-walking-dead-s04-special-inside-the-walking-dead-walker-university-720p-hdtv-x264-w4f-eztv-t9361695.html</guid>
        <pubDate>Tue, 22 Jul 2014 04:19:28 +0000</pubDate>
        <torrent:contentLength>1438648663</torrent:contentLength>
        <torrent:infoHash>B23F64BE2C2394863333A2484CA88ACF456AF3D1</torrent:infoHash>
        <torrent:magnetURI><![CDATA[magnet:?xt=urn:btih:B23F64BE2C2394863333A2484CA88ACF456AF3D1&dn=the+walking+dead+s04+special+inside+the+walking+dead+walker+university+720p+hdtv+x264+w4f+eztv&tr=udp%3A%2F%2Fopen.demonii.com%3A1337%2Fannounce]]></torrent:magnetURI>
        <torrent:seeds>537</torrent:seeds>
        <torrent:peers>921</torrent:peers>
        <torrent:verified>1</torrent:verified>
        <torrent:fileName>the.walking.dead.s04.special.inside.the.walking.dead.walker.university.720p.hdtv.x264.w4f.eztv.torrent</torrent:fileName>
        <enclosure url="http://torcache.net/torrent/B23F64BE2C2394863333A2484CA88ACF456AF3D1.torrent?title=[kickass.to]the.walking.dead.s04.special.inside.the.walking.dead.walker.university.720p.hdtv.x264.w4f.eztv" length="1438648663" type="application/x-bittorrent" />
    </item>
    <item>
        <title>The Walking Dead S04E00 Inside the Walking Dead PROPER 720p HDTV x264-BATV [eztv]</title>
      <description><![CDATA[Help us by donating with Bitcoin: 1EZTVaGQ6UsjYJ9fwqGnd45oZ6HGT7WKZd

#EZTV -&gt; To avoid fakes, ALWAYS check that the torrent was added by eztv.

https://eztv.it/

Episode: The Walking Dead S04E00 Inside the Walking Dead PROPER 720p HDTV x264-BATV
Screenshots:


]]></description>
        <category>TV</category>
      <author>http://kickass.to/user/EZTV/</author>        <link>http://kickass.to/the-walking-dead-s04e00-inside-the-walking-dead-proper-720p-hdtv-x264-batv-eztv-t9360993.html</link>
        <guid>http://kickass.to/the-walking-dead-s04e00-inside-the-walking-dead-proper-720p-hdtv-x264-batv-eztv-t9360993.html</guid>
        <pubDate>Mon, 21 Jul 2014 23:30:20 +0000</pubDate>
        <torrent:contentLength>1548709443</torrent:contentLength>
        <torrent:infoHash>DB1AEC68B04E4F9ADF6AEDBD02BF5354676542D4</torrent:infoHash>
        <torrent:magnetURI><![CDATA[magnet:?xt=urn:btih:DB1AEC68B04E4F9ADF6AEDBD02BF5354676542D4&dn=the+walking+dead+s04e00+inside+the+walking+dead+proper+720p+hdtv+x264+batv+eztv&tr=udp%3A%2F%2Ftracker.secureboxes.net%3A80%2Fannounce&tr=udp%3A%2F%2Fopen.demonii.com%3A1337]]></torrent:magnetURI>
        <torrent:seeds>703</torrent:seeds>
        <torrent:peers>980</torrent:peers>
        <torrent:verified>1</torrent:verified>
        <torrent:fileName>the.walking.dead.s04e00.inside.the.walking.dead.proper.720p.hdtv.x264.batv.eztv.torrent</torrent:fileName>
        <enclosure url="http://torcache.net/torrent/DB1AEC68B04E4F9ADF6AEDBD02BF5354676542D4.torrent?title=[kickass.to]the.walking.dead.s04e00.inside.the.walking.dead.proper.720p.hdtv.x264.batv.eztv" length="1548709443" type="application/x-bittorrent" />
    </item>
    <item>
        <title>The Walking Dead S04E00 Inside the Walking Dead PROPER HDTV x264-BATV [eztv]</title>
      <description><![CDATA[Help us by donating with Bitcoin: 1EZTVaGQ6UsjYJ9fwqGnd45oZ6HGT7WKZd

#EZTV -&gt; To avoid fakes, ALWAYS check that the torrent was added by eztv.

https://eztv.it/

Episode: The Walking Dead S04E00 Inside the Walking Dead PROPER HDTV x264-BATV
Screenshots:


]]></description>
        <category>TV</category>
      <author>http://kickass.to/user/EZTV/</author>        <link>http://kickass.to/the-walking-dead-s04e00-inside-the-walking-dead-proper-hdtv-x264-batv-eztv-t9360840.html</link>
        <guid>http://kickass.to/the-walking-dead-s04e00-inside-the-walking-dead-proper-hdtv-x264-batv-eztv-t9360840.html</guid>
        <pubDate>Mon, 21 Jul 2014 22:29:03 +0000</pubDate>
        <torrent:contentLength>458054093</torrent:contentLength>
        <torrent:infoHash>CCCFF054CA17DF985E335D547E5930D6385AD98F</torrent:infoHash>
        <torrent:magnetURI><![CDATA[magnet:?xt=urn:btih:CCCFF054CA17DF985E335D547E5930D6385AD98F&dn=the+walking+dead+s04e00+inside+the+walking+dead+proper+hdtv+x264+batv+eztv&tr=udp%3A%2F%2Ftracker.secureboxes.net%3A80%2Fannounce&tr=udp%3A%2F%2Fopen.demonii.com%3A1337]]></torrent:magnetURI>
        <torrent:seeds>1660</torrent:seeds>
        <torrent:peers>2460</torrent:peers>
        <torrent:verified>1</torrent:verified>
        <torrent:fileName>the.walking.dead.s04e00.inside.the.walking.dead.proper.hdtv.x264.batv.eztv.torrent</torrent:fileName>
        <enclosure url="http://torcache.net/torrent/CCCFF054CA17DF985E335D547E5930D6385AD98F.torrent?title=[kickass.to]the.walking.dead.s04e00.inside.the.walking.dead.proper.hdtv.x264.batv.eztv" length="458054093" type="application/x-bittorrent" />
    </item>
    <item>
        <title>The Walking Dead S04E00 Inside the Walking Dead PROPER 480p HDTV x264-mSD</title>
      <description><![CDATA[[center][size=100]
[img]http://www.imgclik.com/images/17007417858001545847.jpg[/img]

[color=blue][b]PLOT:........ [/b][/color]Police officer Rick Grimes leads a group of survivors in a world overrun by zombies.


[color=blue][b]
ACTORS:........ [/b][/color]Andrew Lincoln, Jon Bernthal, Sarah Wayne Callies


[color=blue][b]
RELEASED:........ [/b][/color]2010


[color=blue][b]
IMDB:........ [/b][/color]http://www.imdb.com/title/tt1520211/


[i][color=blue][b]
SIZE:........ [/b][/color] 324366388 bytes (309.34 MiB), 
[color=blue][b]DURATION:............ [/b][/color] 00:42:51, 
[color=blue][b]AVG-BITRATE:......... [/b][/color] 1009 kb/s
[color=blue][b]AUDIO:....... [/b][/color] aac, 48000 Hz, stereo
[color=blue][b]VIDEO:....... [/b][/color] h264, yuv420p, 852x480, 23.98 fps(r) (eng)
[/i]

[color=blue][b][url=http://www.imgclik.com/viewer.php?file=37682562911373470605.jpg]Screens[/url][/b][/color]
 [color=blue][b][url=http://www.imgclik.com/viewer.php?file=35223679080662030901.jpg]Screens[/url][/b][/color]
 
[color=blue][b][url=http://www.imgclik.com/viewer.php?file=26449700733639866574.jpg]Screens[/url][/b][/color]
 [color=blue][b][url=http://www.imgclik.com/viewer.php?file=55875907610653948103.jpg]Screens[/url][/b][/color]
 [color=blue][b][url=http://www.imgclik.com/viewer.php?file=79667655808209211988.jpg]Screens[/url][/b][/color]
 



[color=green][b]I KNOW YOU WANT IT[/b][/color]


[color=green][b]DOWNLOAD AND ENJOY.[/b][/color]



[color=silver][b]KEEP IT FOR LONG SEEDING TO HELP OTHERS[/b][/color]
[/size]
[size=100][color=silver]
 Thanks to : mSD
 Movie Share [/color][/size][/center]]]></description>
        <category>TV</category>
      <author>http://kickass.to/user/hotpena/</author>        <link>http://kickass.to/the-walking-dead-s04e00-inside-the-walking-dead-proper-480p-hdtv-x264-msd-t9359619.html</link>
        <guid>http://kickass.to/the-walking-dead-s04e00-inside-the-walking-dead-proper-480p-hdtv-x264-msd-t9359619.html</guid>
        <pubDate>Mon, 21 Jul 2014 16:16:18 +0000</pubDate>
        <torrent:contentLength>324376100</torrent:contentLength>
        <torrent:infoHash>0865235973B82743E2FAE57A68DB005F1B61664D</torrent:infoHash>
        <torrent:magnetURI><![CDATA[magnet:?xt=urn:btih:0865235973B82743E2FAE57A68DB005F1B61664D&dn=the+walking+dead+s04e00+inside+the+walking+dead+proper+480p+hdtv+x264+msd&tr=udp%3A%2F%2Fopen.demonii.com%3A1337%2Fannounce]]></torrent:magnetURI>
        <torrent:seeds>24</torrent:seeds>
        <torrent:peers>31</torrent:peers>
        <torrent:verified>1</torrent:verified>
        <torrent:fileName>the.walking.dead.s04e00.inside.the.walking.dead.proper.480p.hdtv.x264.msd.torrent</torrent:fileName>
        <enclosure url="http://torcache.net/torrent/0865235973B82743E2FAE57A68DB005F1B61664D.torrent?title=[kickass.to]the.walking.dead.s04e00.inside.the.walking.dead.proper.480p.hdtv.x264.msd" length="324376100" type="application/x-bittorrent" />
    </item>
    <item>
        <title>The.Walking.Dead.S04E00.Inside.the.Walking.Dead.PROPER.HDTV.x264-BATV[rartv]</title>
      <description><![CDATA[The.Walking.Dead.S04E00.Inside.the.Walking.Dead.PROPER.HDTV.x264-BATV[rartv]

[img]//dyncdn.me/posters2/d/d3461d3d3094cfdc607402881b6f28e4148daf24.jpg[/img]



[mediainfo]

Video
ID : 2
Format : AVC
Format/Info : Advanced Video Codec
Format profile : High@L3.1
Format settings, CABAC : Yes
Format settings, ReFrames : 5 frames
Codec ID : avc1
Codec ID/Info : Advanced Video Coding
Duration : 42mn 50s
Source duration : 42mn 50s
Bit rate : 1 293 Kbps
Maximum bit rate : 3 128 Kbps
Width : 720 pixels
Height : 404 pixels
Display aspect ratio : 16:9
Frame rate mode : Constant
Frame rate : 23.976 fps
Color space : YUV
Chroma subsampling : 4:2:0
Bit depth : 8 bits
Scan type : Progressive
Bits/(Pixel*Frame) : 0.185
Stream size : 396 MiB (91%)
Source stream size : 396 MiB (91%)
Writing library : x264 core 142 r2431 ac76440
Encoding settings : cabac=1 / ref=5 / deblock=1:0:0 / analyse=0x3:0x113 / me=umh / subme=8 / psy=1 / psy_rd=1.00:0.00 / mixed_ref=1 / me_range=16 / chroma_me=1 / trellis=1 / 8x8dct=1 / cqm=0 / deadzone=21,11 / fast_pskip=1 / chroma_qp_offset=-2 / threads=12 / lookahead_threads=2 / sliced_threads=0 / nr=0 / decimate=1 / interlaced=0 / bluray_compat=0 / constrained_intra=0 / bframes=3 / b_pyramid=2 / b_adapt=2 / b_bias=0 / direct=3 / weightb=1 / open_gop=0 / weightp=2 / keyint=250 / keyint_min=23 / scenecut=40 / intra_refresh=0 / rc_lookahead=50 / rc=crf / mbtree=1 / crf=21.0 / qcomp=0.60 / qpmin=0 / qpmax=69 / qpstep=4 / ip_ratio=1.40 / aq=1:1.00
Encoded date : UTC 2014-07-21 10:15:32
Tagged date : UTC 2014-07-21 10:31:34
Matrix coefficients : BT.709

Audio
ID : 1
Format : AAC
Format/Info : Advanced Audio Codec
Format profile : LC
Codec ID : 40
Duration : 42mn 51s
Bit rate mode : Variable
Bit rate : 128 Kbps
Maximum bit rate : 154 Kbps
Channel(s) : 2 channels
Channel positions : Front: L R
Sampling rate : 48.0 KHz
Compression mode : Lossy
Stream size : 39.2 MiB (9%)
Encoded date : UTC 2014-07-21 10:31:32
Tagged date : UTC 2014-07-21 10:31:34




[/mediainfo]

]]></description>
        <category>TV</category>
      <author>http://kickass.to/user/TryMeS/</author>        <link>http://kickass.to/the-walking-dead-s04e00-inside-the-walking-dead-proper-hdtv-x264-batv-rartv-t9358442.html</link>
        <guid>http://kickass.to/the-walking-dead-s04e00-inside-the-walking-dead-proper-hdtv-x264-batv-rartv-t9358442.html</guid>
        <pubDate>Mon, 21 Jul 2014 10:34:34 +0000</pubDate>
        <torrent:contentLength>469798150</torrent:contentLength>
        <torrent:infoHash>D3461D3D3094CFDC607402881B6F28E4148DAF24</torrent:infoHash>
        <torrent:magnetURI><![CDATA[magnet:?xt=urn:btih:D3461D3D3094CFDC607402881B6F28E4148DAF24&dn=the+walking+dead+s04e00+inside+the+walking+dead+proper+hdtv+x264+batv+rartv&tr=udp%3A%2F%2F12.rarbg.me%3A80%2Fannounce&tr=udp%3A%2F%2Fopen.demonii.com%3A1337]]></torrent:magnetURI>
        <torrent:seeds>487</torrent:seeds>
        <torrent:peers>550</torrent:peers>
        <torrent:verified>1</torrent:verified>
        <torrent:fileName>the.walking.dead.s04e00.inside.the.walking.dead.proper.hdtv.x264.batv.rartv.torrent</torrent:fileName>
        <enclosure url="http://torcache.net/torrent/D3461D3D3094CFDC607402881B6F28E4148DAF24.torrent?title=[kickass.to]the.walking.dead.s04e00.inside.the.walking.dead.proper.hdtv.x264.batv.rartv" length="469798150" type="application/x-bittorrent" />
    </item>
    <item>
        <title>The.Walking.Dead.S04E00.Inside.the.Walking.Dead.PROPER.720p.HDTV.x264-BATV[rartv]</title>
      <description><![CDATA[The.Walking.Dead.S04E00.Inside.the.Walking.Dead.PROPER.720p.HDTV.x264-BATV[rartv]

[img]//dyncdn.me/posters2/c/c4f175bc3ac974921e2af01ec3838d736cafb364.jpg[/img]



[mediainfo]

Video
ID : 1
Format : AVC
Format/Info : Advanced Video Codec
Format profile : High@L4.1
Format settings, CABAC : Yes
Format settings, ReFrames : 5 frames
Codec ID : V_MPEG4/ISO/AVC
Duration : 42mn 51s
Bit rate : 4 339 Kbps
Width : 1 280 pixels
Height : 720 pixels
Display aspect ratio : 16:9
Frame rate mode : Constant
Frame rate : 23.976 fps
Color space : YUV
Chroma subsampling : 4:2:0
Bit depth : 8 bits
Scan type : Progressive
Bits/(Pixel*Frame) : 0.196
Stream size : 1.30 GiB (90%)
Writing library : x264 core 142 r2431 ac76440
Encoding settings : cabac=1 / ref=5 / deblock=1:0:0 / analyse=0x3:0x113 / me=umh / subme=8 / psy=1 / psy_rd=1.00:0.00 / mixed_ref=1 / me_range=16 / chroma_me=1 / trellis=1 / 8x8dct=1 / cqm=0 / deadzone=21,11 / fast_pskip=1 / chroma_qp_offset=-2 / threads=12 / lookahead_threads=2 / sliced_threads=0 / nr=0 / decimate=1 / interlaced=0 / bluray_compat=0 / constrained_intra=0 / bframes=3 / b_pyramid=2 / b_adapt=2 / b_bias=0 / direct=3 / weightb=1 / open_gop=0 / weightp=2 / keyint=250 / keyint_min=23 / scenecut=40 / intra_refresh=0 / rc_lookahead=50 / rc=crf / mbtree=1 / crf=20.0 / qcomp=0.60 / qpmin=0 / qpmax=69 / qpstep=4 / ip_ratio=1.40 / aq=1:1.00
Language : English
Default : Yes
Forced : No
Matrix coefficients : BT.709

Audio
ID : 2
Format : AC-3
Format/Info : Audio Coding 3
Mode extension : CM (complete main)
Format settings, Endianness : Big
Codec ID : A_AC3
Duration : 42mn 51s
Bit rate mode : Constant
Bit rate : 384 Kbps
Channel(s) : 6 channels
Channel positions : Front: L C R, Side: L R, LFE
Sampling rate : 48.0 KHz
Bit depth : 16 bits
Compression mode : Lossy
Stream size : 118 MiB (8%)
Default : Yes
Forced : No




[/mediainfo]

]]></description>
        <category>TV</category>
      <author>http://kickass.to/user/TryMeS/</author>        <link>http://kickass.to/the-walking-dead-s04e00-inside-the-walking-dead-proper-720p-hdtv-x264-batv-rartv-t9358352.html</link>
        <guid>http://kickass.to/the-walking-dead-s04e00-inside-the-walking-dead-proper-720p-hdtv-x264-batv-rartv-t9358352.html</guid>
        <pubDate>Mon, 21 Jul 2014 09:54:22 +0000</pubDate>
        <torrent:contentLength>1548710395</torrent:contentLength>
        <torrent:infoHash>C4F175BC3AC974921E2AF01EC3838D736CAFB364</torrent:infoHash>
        <torrent:magnetURI><![CDATA[magnet:?xt=urn:btih:C4F175BC3AC974921E2AF01EC3838D736CAFB364&dn=the+walking+dead+s04e00+inside+the+walking+dead+proper+720p+hdtv+x264+batv+rartv&tr=udp%3A%2F%2F12.rarbg.me%3A80%2Fannounce&tr=udp%3A%2F%2Fopen.demonii.com%3A1337]]></torrent:magnetURI>
        <torrent:seeds>417</torrent:seeds>
        <torrent:peers>496</torrent:peers>
        <torrent:verified>1</torrent:verified>
        <torrent:fileName>the.walking.dead.s04e00.inside.the.walking.dead.proper.720p.hdtv.x264.batv.rartv.torrent</torrent:fileName>
        <enclosure url="http://torcache.net/torrent/C4F175BC3AC974921E2AF01EC3838D736CAFB364.torrent?title=[kickass.to]the.walking.dead.s04e00.inside.the.walking.dead.proper.720p.hdtv.x264.batv.rartv" length="1548710395" type="application/x-bittorrent" />
    </item>
    <item>
        <title>The Walking Dead - Temporada 4 [HDTV][Cap.409][Español Castellano]</title>
        <category>TV</category>
      <author>http://kickass.to/user/diegodiego142/</author>        <link>http://kickass.to/the-walking-dead-temporada-4-hdtv-cap-409-español-castellano-t9356552.html</link>
        <guid>http://kickass.to/the-walking-dead-temporada-4-hdtv-cap-409-español-castellano-t9356552.html</guid>
        <pubDate>Sun, 20 Jul 2014 23:26:42 +0000</pubDate>
        <torrent:contentLength>467449450</torrent:contentLength>
        <torrent:infoHash>37C97AA403004E4D103EF83EB1D83FF19C2ABEA2</torrent:infoHash>
        <torrent:magnetURI><![CDATA[magnet:?xt=urn:btih:37C97AA403004E4D103EF83EB1D83FF19C2ABEA2&dn=the+walking+dead+temporada+4+hdtv+cap+409+espa%C3%B1ol+castellano&tr=udp%3A%2F%2Fopen.demonii.com%3A1337%2Fannounce]]></torrent:magnetURI>
        <torrent:seeds>141</torrent:seeds>
        <torrent:peers>148</torrent:peers>
        <torrent:verified>0</torrent:verified>
        <torrent:fileName>the.walking.dead.temporada.4.hdtv.cap.409.espa%C3%B1ol.castellano.torrent</torrent:fileName>
        <enclosure url="http://torcache.net/torrent/37C97AA403004E4D103EF83EB1D83FF19C2ABEA2.torrent?title=[kickass.to]the.walking.dead.temporada.4.hdtv.cap.409.espa%C3%B1ol.castellano" length="467449450" type="application/x-bittorrent" />
    </item>
    <item>
        <title>The Walking Dead - Temporada 4 [HDTV][Cap.410][Español Castellano]</title>
        <category>TV</category>
      <author>http://kickass.to/user/diegodiego142/</author>        <link>http://kickass.to/the-walking-dead-temporada-4-hdtv-cap-410-español-castellano-t9356461.html</link>
        <guid>http://kickass.to/the-walking-dead-temporada-4-hdtv-cap-410-español-castellano-t9356461.html</guid>
        <pubDate>Sun, 20 Jul 2014 23:20:56 +0000</pubDate>
        <torrent:contentLength>468159692</torrent:contentLength>
        <torrent:infoHash>11EDC47DB2CAF2295A5EA3AD2733C797434A082C</torrent:infoHash>
        <torrent:magnetURI><![CDATA[magnet:?xt=urn:btih:11EDC47DB2CAF2295A5EA3AD2733C797434A082C&dn=the+walking+dead+temporada+4+hdtv+cap+410+espa%C3%B1ol+castellano&tr=udp%3A%2F%2Fopen.demonii.com%3A1337%2Fannounce]]></torrent:magnetURI>
        <torrent:seeds>105</torrent:seeds>
        <torrent:peers>112</torrent:peers>
        <torrent:verified>0</torrent:verified>
        <torrent:fileName>the.walking.dead.temporada.4.hdtv.cap.410.espa%C3%B1ol.castellano.torrent</torrent:fileName>
        <enclosure url="http://torcache.net/torrent/11EDC47DB2CAF2295A5EA3AD2733C797434A082C.torrent?title=[kickass.to]the.walking.dead.temporada.4.hdtv.cap.410.espa%C3%B1ol.castellano" length="468159692" type="application/x-bittorrent" />
    </item>
    <item>
        <title>The Walking Dead - Temporada 4 [HDTV][Cap.411][Español Castellano]</title>
        <category>TV</category>
      <author>http://kickass.to/user/diegodiego142/</author>        <link>http://kickass.to/the-walking-dead-temporada-4-hdtv-cap-411-español-castellano-t9356380.html</link>
        <guid>http://kickass.to/the-walking-dead-temporada-4-hdtv-cap-411-español-castellano-t9356380.html</guid>
        <pubDate>Sun, 20 Jul 2014 23:15:03 +0000</pubDate>
        <torrent:contentLength>470795189</torrent:contentLength>
        <torrent:infoHash>98C9D6191A8E4E326053950AB0E4E8D043FB837D</torrent:infoHash>
        <torrent:magnetURI><![CDATA[magnet:?xt=urn:btih:98C9D6191A8E4E326053950AB0E4E8D043FB837D&dn=the+walking+dead+temporada+4+hdtv+cap+411+espa%C3%B1ol+castellano&tr=udp%3A%2F%2Fopen.demonii.com%3A1337%2Fannounce]]></torrent:magnetURI>
        <torrent:seeds>105</torrent:seeds>
        <torrent:peers>183</torrent:peers>
        <torrent:verified>0</torrent:verified>
        <torrent:fileName>the.walking.dead.temporada.4.hdtv.cap.411.espa%C3%B1ol.castellano.torrent</torrent:fileName>
        <enclosure url="http://torcache.net/torrent/98C9D6191A8E4E326053950AB0E4E8D043FB837D.torrent?title=[kickass.to]the.walking.dead.temporada.4.hdtv.cap.411.espa%C3%B1ol.castellano" length="470795189" type="application/x-bittorrent" />
    </item>
    <item>
        <title>The Walking Dead - Temporada 4 [HDTV][Cap.415][Español Castellano]</title>
        <category>TV</category>
      <author>http://kickass.to/user/diegodiego142/</author>        <link>http://kickass.to/the-walking-dead-temporada-4-hdtv-cap-415-español-castellano-t9355997.html</link>
        <guid>http://kickass.to/the-walking-dead-temporada-4-hdtv-cap-415-español-castellano-t9355997.html</guid>
        <pubDate>Sun, 20 Jul 2014 22:50:56 +0000</pubDate>
        <torrent:contentLength>475060697</torrent:contentLength>
        <torrent:infoHash>D744E3D80030FE42A7A11594F4C0171CEEEEA207</torrent:infoHash>
        <torrent:magnetURI><![CDATA[magnet:?xt=urn:btih:D744E3D80030FE42A7A11594F4C0171CEEEEA207&dn=the+walking+dead+temporada+4+hdtv+cap+415+espa%C3%B1ol+castellano&tr=udp%3A%2F%2Fopen.demonii.com%3A1337%2Fannounce]]></torrent:magnetURI>
        <torrent:seeds>144</torrent:seeds>
        <torrent:peers>219</torrent:peers>
        <torrent:verified>0</torrent:verified>
        <torrent:fileName>the.walking.dead.temporada.4.hdtv.cap.415.espa%C3%B1ol.castellano.torrent</torrent:fileName>
        <enclosure url="http://torcache.net/torrent/D744E3D80030FE42A7A11594F4C0171CEEEEA207.torrent?title=[kickass.to]the.walking.dead.temporada.4.hdtv.cap.415.espa%C3%B1ol.castellano" length="475060697" type="application/x-bittorrent" />
    </item>
    <item>
        <title>The Walking Dead S04 Special Inside The Walking Dead Walker University HDTV x264-W4F - [GloTV]</title>
      <description><![CDATA[
[b]=================================
GloTorrents - A BitTorrent Community
====================================
For more info Check 
http://www.tvrage.com/schedule.php?show_yesterday=1
 		 
x264
Encode Information
Resolution....: 720x404
Video : x264
Audio : AAC 2ch 48khz
Frame Rate : 23.976024 fps
 		 
Visit http://glotorrents.com for more..
 		 
[URL=http://facebook.com/glotorrents][IMG]http://imgchicken.com/images/70062593280474318711.gif[/IMG][/URL]
==================================[/b]]]></description>
        <category>TV</category>
      <author>http://kickass.to/user/chrisowenlove/</author>        <link>http://kickass.to/the-walking-dead-s04-special-inside-the-walking-dead-walker-university-hdtv-x264-w4f-glotv-t9340048.html</link>
        <guid>http://kickass.to/the-walking-dead-s04-special-inside-the-walking-dead-walker-university-hdtv-x264-w4f-glotv-t9340048.html</guid>
        <pubDate>Thu, 17 Jul 2014 10:40:48 +0000</pubDate>
        <torrent:contentLength>444376049</torrent:contentLength>
        <torrent:infoHash>89DF89636C6E7C435FDD4E6B7265D1CBCF5D35D8</torrent:infoHash>
        <torrent:magnetURI><![CDATA[magnet:?xt=urn:btih:89DF89636C6E7C435FDD4E6B7265D1CBCF5D35D8&dn=the+walking+dead+s04+special+inside+the+walking+dead+walker+university+hdtv+x264+w4f+glotv&tr=udp%3A%2F%2Fthepornvilla.com%3A6969%2Fannounce&tr=udp%3A%2F%2Fopen.demonii.com%3A1337]]></torrent:magnetURI>
        <torrent:seeds>29</torrent:seeds>
        <torrent:peers>49</torrent:peers>
        <torrent:verified>1</torrent:verified>
        <torrent:fileName>the.walking.dead.s04.special.inside.the.walking.dead.walker.university.hdtv.x264.w4f.glotv.torrent</torrent:fileName>
        <enclosure url="http://torcache.net/torrent/89DF89636C6E7C435FDD4E6B7265D1CBCF5D35D8.torrent?title=[kickass.to]the.walking.dead.s04.special.inside.the.walking.dead.walker.university.hdtv.x264.w4f.glotv" length="444376049" type="application/x-bittorrent" />
    </item>
    <item>
        <title>The Walking Dead S04 Special Inside The Walking Dead Walker Univ</title>
      <description><![CDATA[http://www.torrenting.com

Sign up is OPEN - for time being. Come and have fun.]]></description>
        <category>TV</category>
      <author>http://kickass.to/user/TvTeam/</author>        <link>http://kickass.to/the-walking-dead-s04-special-inside-the-walking-dead-walker-univ-t9338948.html</link>
        <guid>http://kickass.to/the-walking-dead-s04-special-inside-the-walking-dead-walker-univ-t9338948.html</guid>
        <pubDate>Thu, 17 Jul 2014 02:57:03 +0000</pubDate>
        <torrent:contentLength>322650729</torrent:contentLength>
        <torrent:infoHash>6B77416C8CB90472C77ED026D1820242BAD8BD2E</torrent:infoHash>
        <torrent:magnetURI><![CDATA[magnet:?xt=urn:btih:6B77416C8CB90472C77ED026D1820242BAD8BD2E&dn=the+walking+dead+s04+special+inside+the+walking+dead+walker+univ&tr=udp%3A%2F%2Fopen.demonii.com%3A1337%2Fannounce]]></torrent:magnetURI>
        <torrent:seeds>13</torrent:seeds>
        <torrent:peers>58</torrent:peers>
        <torrent:verified>1</torrent:verified>
        <torrent:fileName>the.walking.dead.s04.special.inside.the.walking.dead.walker.univ.torrent</torrent:fileName>
        <enclosure url="http://torcache.net/torrent/6B77416C8CB90472C77ED026D1820242BAD8BD2E.torrent?title=[kickass.to]the.walking.dead.s04.special.inside.the.walking.dead.walker.univ" length="322650729" type="application/x-bittorrent" />
    </item>
    <item>
        <title>The Walking Dead S04 Special Inside The Walking Dead Walker University 480p HDTV x264-mSD</title>
      <description><![CDATA[[center][size=100]
[img]http://www.imgclik.com/images/39162347018841652293.jpg[/img]

[color=blue][b]PLOT:........ [/b][/color]Police officer Rick Grimes leads a group of survivors in a world overrun by zombies.


[color=blue][b]
ACTORS:........ [/b][/color]Andrew Lincoln, Jon Bernthal, Sarah Wayne Callies


[color=blue][b]
RELEASED:........ [/b][/color]2010


[color=blue][b]
IMDB:........ [/b][/color]http://www.imdb.com/title/tt1520211/


[i][color=blue][b]
SIZE:........ [/b][/color] 322649402 bytes (307.70 MiB), 
[color=blue][b]DURATION:............ [/b][/color] 00:42:55, 
[color=blue][b]AVG-BITRATE:......... [/b][/color] 1002 kb/s
[color=blue][b]AUDIO:....... [/b][/color] aac, 48000 Hz, stereo
[color=blue][b]VIDEO:....... [/b][/color] h264, yuv420p, 852x480, 23.98 fps(r) (eng)
[/i]

[color=blue][b][url=http://www.imgclik.com/viewer.php?file=08584368991021136835.jpg]Screens[/url][/b][/color]
 [color=blue][b][url=http://www.imgclik.com/viewer.php?file=51845089527060435230.jpg]Screens[/url][/b][/color]
 
[color=blue][b][url=http://www.imgclik.com/viewer.php?file=19831481459499774670.jpg]Screens[/url][/b][/color]
 [color=blue][b][url=http://www.imgclik.com/viewer.php?file=93719069101554712346.jpg]Screens[/url][/b][/color]
 [color=blue][b][url=http://www.imgclik.com/viewer.php?file=97054121768417182236.jpg]Screens[/url][/b][/color]
 



[color=green][b]I KNOW YOU WANT IT[/b][/color]


[color=green][b]DOWNLOAD AND ENJOY.[/b][/color]



[color=silver][b]KEEP IT FOR LONG SEEDING TO HELP OTHERS[/b][/color]
[/size]
[size=100][color=silver]
 Thanks to : mSD
 Movie Share [/color][/size][/center]]]></description>
        <category>TV</category>
      <author>http://kickass.to/user/hotpena/</author>        <link>http://kickass.to/the-walking-dead-s04-special-inside-the-walking-dead-walker-university-480p-hdtv-x264-msd-t9338937.html</link>
        <guid>http://kickass.to/the-walking-dead-s04-special-inside-the-walking-dead-walker-university-480p-hdtv-x264-msd-t9338937.html</guid>
        <pubDate>Thu, 17 Jul 2014 02:51:04 +0000</pubDate>
        <torrent:contentLength>322659161</torrent:contentLength>
        <torrent:infoHash>9F6BE0DF15A79B3AC954E20B1350DA383AEC33B8</torrent:infoHash>
        <torrent:magnetURI><![CDATA[magnet:?xt=urn:btih:9F6BE0DF15A79B3AC954E20B1350DA383AEC33B8&dn=the+walking+dead+s04+special+inside+the+walking+dead+walker+university+480p+hdtv+x264+msd&tr=udp%3A%2F%2Fopen.demonii.com%3A1337%2Fannounce]]></torrent:magnetURI>
        <torrent:seeds>26</torrent:seeds>
        <torrent:peers>61</torrent:peers>
        <torrent:verified>1</torrent:verified>
        <torrent:fileName>the.walking.dead.s04.special.inside.the.walking.dead.walker.university.480p.hdtv.x264.msd.torrent</torrent:fileName>
        <enclosure url="http://torcache.net/torrent/9F6BE0DF15A79B3AC954E20B1350DA383AEC33B8.torrent?title=[kickass.to]the.walking.dead.s04.special.inside.the.walking.dead.walker.university.480p.hdtv.x264.msd" length="322659161" type="application/x-bittorrent" />
    </item>
    <item>
        <title>The Walking Dead S04 Special Inside The Walking Dead Walker Univ</title>
      <description><![CDATA[http://www.torrenting.com

Sign up is OPEN - for time being. Come and have fun.]]></description>
        <category>TV</category>
      <author>http://kickass.to/user/TvTeam/</author>        <link>http://kickass.to/the-walking-dead-s04-special-inside-the-walking-dead-walker-univ-t9338785.html</link>
        <guid>http://kickass.to/the-walking-dead-s04-special-inside-the-walking-dead-walker-univ-t9338785.html</guid>
        <pubDate>Thu, 17 Jul 2014 01:51:02 +0000</pubDate>
        <torrent:contentLength>363531269</torrent:contentLength>
        <torrent:infoHash>F3ECE3B4A4FA4C10F30930638B11F532C1F715FC</torrent:infoHash>
        <torrent:magnetURI><![CDATA[magnet:?xt=urn:btih:F3ECE3B4A4FA4C10F30930638B11F532C1F715FC&dn=the+walking+dead+s04+special+inside+the+walking+dead+walker+univ&tr=udp%3A%2F%2Fopen.demonii.com%3A1337%2Fannounce]]></torrent:magnetURI>
        <torrent:seeds>6</torrent:seeds>
        <torrent:peers>84</torrent:peers>
        <torrent:verified>1</torrent:verified>
        <torrent:fileName>the.walking.dead.s04.special.inside.the.walking.dead.walker.univ.torrent</torrent:fileName>
        <enclosure url="http://torcache.net/torrent/F3ECE3B4A4FA4C10F30930638B11F532C1F715FC.torrent?title=[kickass.to]the.walking.dead.s04.special.inside.the.walking.dead.walker.univ" length="363531269" type="application/x-bittorrent" />
    </item>
    <item>
        <title>The Walking Dead S04 Special Inside The Walking Dead Walker University 720p HDTV x264-W4F</title>
      <description><![CDATA[[b]the.walking.dead.s04.special.inside.the.walking.dead.walker.university.720p.hdtv.x264-w4f.mkv[/b]

[b]SIZE:[/b] 1438648663 bytes (1.34 GiB), 

[b]DURATION:[/b] 00:42:55, 

[b]AVG-BITRATE:[/b] 4470 kb/s

[b]AUDIO:[/b] ac3, 48000 Hz, 5:1

[b]VIDEO:[/b] h264, yuv420p, 1280x720, 23.98 fps(r)

[b]SCREENS:[/b]
[url=http://www.vivaex.com/viewer.php?file=47269887468627197318.jpg][img]http://www.vivaex.com/images/47269887468627197318_thumb.jpg[/img][/url] 

[url=http://www.vivaex.com/viewer.php?file=03642010200200646226.jpg][size=150][b]View large Image[/b][/size][/url]

[url=http://www.vivaex.com/viewer.php?file=06226379567640523870.jpg][size=150][b]View large Image[/b][/size][/url]



[url=https://www.facebook.com/pages/High-Quality-Download-Links/1446110842281782]https://www.facebook.com/pages/High-Quality-Download-Links/1446110842281782[/url]

NOTE: If Rar files, then use winrar for decompress it http://www.rarlab.com/download.htm 
 Most of video format are supported by VLC http://www.videolan.org/vlc/]]></description>
        <category>TV</category>
      <author>http://kickass.to/user/brasse0/</author>        <link>http://kickass.to/the-walking-dead-s04-special-inside-the-walking-dead-walker-university-720p-hdtv-x264-w4f-t9338404.html</link>
        <guid>http://kickass.to/the-walking-dead-s04-special-inside-the-walking-dead-walker-university-720p-hdtv-x264-w4f-t9338404.html</guid>
        <pubDate>Wed, 16 Jul 2014 21:26:07 +0000</pubDate>
        <torrent:contentLength>1475180805</torrent:contentLength>
        <torrent:infoHash>1C24BDC7D4BB2F2165CB629BBD775F8DB02EF0B8</torrent:infoHash>
        <torrent:magnetURI><![CDATA[magnet:?xt=urn:btih:1C24BDC7D4BB2F2165CB629BBD775F8DB02EF0B8&dn=the+walking+dead+s04+special+inside+the+walking+dead+walker+university+720p+hdtv+x264+w4f&tr=http%3A%2F%2Ftracker.secureboxes.net%2Fannounce&tr=udp%3A%2F%2Fopen.demonii.com%3A1337]]></torrent:magnetURI>
        <torrent:seeds>14</torrent:seeds>
        <torrent:peers>60</torrent:peers>
        <torrent:verified>1</torrent:verified>
        <torrent:fileName>the.walking.dead.s04.special.inside.the.walking.dead.walker.university.720p.hdtv.x264.w4f.torrent</torrent:fileName>
        <enclosure url="http://torcache.net/torrent/1C24BDC7D4BB2F2165CB629BBD775F8DB02EF0B8.torrent?title=[kickass.to]the.walking.dead.s04.special.inside.the.walking.dead.walker.university.720p.hdtv.x264.w4f" length="1475180805" type="application/x-bittorrent" />
    </item>
    <item>
        <title>The.Walking.Dead.S04.Special.Inside.The.Walking.Dead.Walker.University.720p.HDTV.x264-W4F[rartv]</title>
      <description><![CDATA[The.Walking.Dead.S04.Special.Inside.The.Walking.Dead.Walker.University.720p.HDTV.x264-W4F[rartv]

[img]//dyncdn.me/posters2/d/d0b4f7ab7b0cfee851400f6456ea1f68289ddce4.jpg[/img]



[mediainfo]

Video
ID : 1
Format : AVC
Format/Info : Advanced Video Codec
Format profile : High@L4.1
Format settings, CABAC : Yes
Format settings, ReFrames : 5 frames
Codec ID : V_MPEG4/ISO/AVC
Duration : 42mn 55s
Bit rate : 3 995 Kbps
Width : 1 280 pixels
Height : 720 pixels
Display aspect ratio : 16:9
Frame rate mode : Constant
Frame rate : 23.976 fps
Color space : YUV
Chroma subsampling : 4:2:0
Bit depth : 8 bits
Scan type : Progressive
Bits/(Pixel*Frame) : 0.181
Stream size : 1.20 GiB (89%)
Writing library : x264 core 142 r2431 ac76440
Encoding settings : cabac=1 / ref=5 / deblock=1:0:0 / analyse=0x3:0x113 / me=umh / subme=8 / psy=1 / psy_rd=1.00:0.00 / mixed_ref=1 / me_range=16 / chroma_me=1 / trellis=1 / 8x8dct=1 / cqm=0 / deadzone=21,11 / fast_pskip=1 / chroma_qp_offset=-2 / threads=12 / lookahead_threads=2 / sliced_threads=0 / nr=0 / decimate=1 / interlaced=0 / bluray_compat=0 / constrained_intra=0 / bframes=3 / b_pyramid=2 / b_adapt=2 / b_bias=0 / direct=3 / weightb=1 / open_gop=0 / weightp=2 / keyint=250 / keyint_min=23 / scenecut=40 / intra_refresh=0 / rc_lookahead=50 / rc=crf / mbtree=1 / crf=20.0 / qcomp=0.60 / qpmin=0 / qpmax=69 / qpstep=4 / ip_ratio=1.40 / aq=1:1.00
Default : Yes
Forced : No
Matrix coefficients : BT.709

Audio
ID : 2
Format : AC-3
Format/Info : Audio Coding 3
Mode extension : CM (complete main)
Format settings, Endianness : Big
Codec ID : A_AC3
Duration : 42mn 55s
Bit rate mode : Constant
Bit rate : 384 Kbps
Channel(s) : 6 channels
Channel positions : Front: L C R, Side: L R, LFE
Sampling rate : 48.0 KHz
Bit depth : 16 bits
Compression mode : Lossy
Stream size : 118 MiB (9%)
Default : Yes
Forced : No




[/mediainfo]

]]></description>
        <category>TV</category>
      <author>http://kickass.to/user/TryMeS/</author>        <link>http://kickass.to/the-walking-dead-s04-special-inside-the-walking-dead-walker-university-720p-hdtv-x264-w4f-rartv-t9338390.html</link>
        <guid>http://kickass.to/the-walking-dead-s04-special-inside-the-walking-dead-walker-university-720p-hdtv-x264-w4f-rartv-t9338390.html</guid>
        <pubDate>Wed, 16 Jul 2014 21:23:37 +0000</pubDate>
        <torrent:contentLength>1475166419</torrent:contentLength>
        <torrent:infoHash>D0B4F7AB7B0CFEE851400F6456EA1F68289DDCE4</torrent:infoHash>
        <torrent:magnetURI><![CDATA[magnet:?xt=urn:btih:D0B4F7AB7B0CFEE851400F6456EA1F68289DDCE4&dn=the+walking+dead+s04+special+inside+the+walking+dead+walker+university+720p+hdtv+x264+w4f+rartv&tr=udp%3A%2F%2F12.rarbg.me%3A80%2Fannounce&tr=udp%3A%2F%2Fopen.demonii.com%3A1337]]></torrent:magnetURI>
        <torrent:seeds>58</torrent:seeds>
        <torrent:peers>91</torrent:peers>
        <torrent:verified>1</torrent:verified>
        <torrent:fileName>the.walking.dead.s04.special.inside.the.walking.dead.walker.university.720p.hdtv.x264.w4f.rartv.torrent</torrent:fileName>
        <enclosure url="http://torcache.net/torrent/D0B4F7AB7B0CFEE851400F6456EA1F68289DDCE4.torrent?title=[kickass.to]the.walking.dead.s04.special.inside.the.walking.dead.walker.university.720p.hdtv.x264.w4f.rartv" length="1475166419" type="application/x-bittorrent" />
    </item>
    <item>
        <title>The Walking Dead Season 2 Episode 1+2+3 Mod apk android</title>
      <description><![CDATA[The Walking Dead Season 2 Episode 1+2+3 for ANDROID
I just downloaded episode 2 successfully with it for free and It should work in your mobiles too!
[b][u]Download episode 2+3 through Game(apk) for FREE[/u][/b]
[u][b]INSTRUCTIONS[/b][/u]
1.Download torrent
2.Install Apk
3.Copy &quot;com.telltalegames.walkingdead200&quot; to Storage/emulated/0/Android/obb
4.Run Apk (ONLINE AT FIRST TIME) And ENJOY :D
[u]NOTE:If you open Apk before copying &quot;com.telltalegames.walkingdead200&quot; then it won&#039;t work and a cancel option is shown.So,to avoid it first copy file to obb folder then open Apk [/u]
If you have any questions just let me know and i will try to HELP!
[b][i][u]PLEASE SEED THE TORRENT.I am seeding this torrent all the time for you guys now and I apologize for those who had problems with seeds while downloading torrent but NOW THE PROBLEM IS SOLVED :) [/u][/i][/b]
[b]This torrent(game) is tested on Galaxy Note 3[/b]

[image=en3yEWKPOB]

[image=nmWE45KLdZ]

[image=vnbf7gh4mj]

[u][b]WEBSITE LINK BELOW: (Please leave a comment)[/b][/u]
[url=&quot;http://thewalkingdeadseason2freeepisodesandroid.webs.com/&quot;]CLICK HERE FOR WEBSITE LINK[/url]]]></description>
        <category>Games - Android</category>
      <author>http://kickass.to/user/RaSer/</author>        <link>http://kickass.to/the-walking-dead-season-2-episode-1-2-3-mod-apk-android-t9338352.html</link>
        <guid>http://kickass.to/the-walking-dead-season-2-episode-1-2-3-mod-apk-android-t9338352.html</guid>
        <pubDate>Wed, 16 Jul 2014 21:09:37 +0000</pubDate>
        <torrent:contentLength>553030809</torrent:contentLength>
        <torrent:infoHash>2695C3E485EBE616F9910475890DC879CF9A2981</torrent:infoHash>
        <torrent:magnetURI><![CDATA[magnet:?xt=urn:btih:2695C3E485EBE616F9910475890DC879CF9A2981&dn=the+walking+dead+season+2+episode+1+2+3+mod+apk+android&tr=udp%3A%2F%2Fopen.demonii.com%3A1337%2Fannounce]]></torrent:magnetURI>
        <torrent:seeds>6</torrent:seeds>
        <torrent:peers>11</torrent:peers>
        <torrent:verified>0</torrent:verified>
        <torrent:fileName>the.walking.dead.season.2.episode.1.2.3.mod.apk.android.torrent</torrent:fileName>
        <enclosure url="http://torcache.net/torrent/2695C3E485EBE616F9910475890DC879CF9A2981.torrent?title=[kickass.to]the.walking.dead.season.2.episode.1.2.3.mod.apk.android" length="553030809" type="application/x-bittorrent" />
    </item>
    <item>
        <title>The.Walking.Dead.S04.Special.Inside.The.Walking.Dead.Walker.University.HDTV.x264-W4F[rartv]</title>
      <description><![CDATA[The.Walking.Dead.S04.Special.Inside.The.Walking.Dead.Walker.University.HDTV.x264-W4F[rartv]

[img]//dyncdn.me/posters2/9/97d44864a862790f992b46b9a8f749ab028826af.jpg[/img]



[mediainfo]

Video
ID : 1
Format : AVC
Format/Info : Advanced Video Codec
Format profile : High@L3.1
Format settings, CABAC : Yes
Format settings, ReFrames : 5 frames
Codec ID : avc1
Codec ID/Info : Advanced Video Coding
Duration : 42mn 55s
Bit rate : 1 234 Kbps
Maximum bit rate : 5 934 Kbps
Width : 720 pixels
Height : 404 pixels
Display aspect ratio : 16:9
Frame rate mode : Constant
Frame rate : 23.976 fps
Color space : YUV
Chroma subsampling : 4:2:0
Bit depth : 8 bits
Scan type : Progressive
Bits/(Pixel*Frame) : 0.177
Stream size : 379 MiB (89%)
Title : Video
Writing library : x264 core 142 r2431 ac76440
Encoding settings : cabac=1 / ref=5 / deblock=1:0:0 / analyse=0x3:0x113 / me=umh / subme=8 / psy=1 / psy_rd=1.00:0.00 / mixed_ref=1 / me_range=16 / chroma_me=1 / trellis=1 / 8x8dct=1 / cqm=0 / deadzone=21,11 / fast_pskip=1 / chroma_qp_offset=-2 / threads=12 / lookahead_threads=2 / sliced_threads=0 / nr=0 / decimate=1 / interlaced=0 / bluray_compat=0 / constrained_intra=0 / bframes=3 / b_pyramid=2 / b_adapt=2 / b_bias=0 / direct=3 / weightb=1 / open_gop=0 / weightp=2 / keyint=250 / keyint_min=23 / scenecut=40 / intra_refresh=0 / rc_lookahead=50 / rc=crf / mbtree=1 / crf=21.0 / qcomp=0.60 / qpmin=0 / qpmax=69 / qpstep=4 / ip_ratio=1.40 / aq=1:1.00
Encoded date : UTC 2014-07-16 20:07:35
Tagged date : UTC 2014-07-16 20:07:41
Matrix coefficients : BT.709

Audio
ID : 2
Format : AAC
Format/Info : Advanced Audio Codec
Format profile : LC
Codec ID : 40
Duration : 42mn 55s
Bit rate mode : Variable
Bit rate : 144 Kbps
Maximum bit rate : 174 Kbps
Channel(s) : 2 channels
Channel positions : Front: L R
Sampling rate : 48.0 KHz
Compression mode : Lossy
Stream size : 43.7 MiB (10%)
Encoded date : UTC 2014-07-16 20:07:40
Tagged date : UTC 2014-07-16 20:07:41




[/mediainfo]

]]></description>
        <category>TV</category>
      <author>http://kickass.to/user/TryMeS/</author>        <link>http://kickass.to/the-walking-dead-s04-special-inside-the-walking-dead-walker-university-hdtv-x264-w4f-rartv-t9338255.html</link>
        <guid>http://kickass.to/the-walking-dead-s04-special-inside-the-walking-dead-walker-university-hdtv-x264-w4f-rartv-t9338255.html</guid>
        <pubDate>Wed, 16 Jul 2014 20:25:27 +0000</pubDate>
        <torrent:contentLength>450214536</torrent:contentLength>
        <torrent:infoHash>97D44864A862790F992B46B9A8F749AB028826AF</torrent:infoHash>
        <torrent:magnetURI><![CDATA[magnet:?xt=urn:btih:97D44864A862790F992B46B9A8F749AB028826AF&dn=the+walking+dead+s04+special+inside+the+walking+dead+walker+university+hdtv+x264+w4f+rartv&tr=udp%3A%2F%2F12.rarbg.me%3A80%2Fannounce&tr=udp%3A%2F%2Fopen.demonii.com%3A1337]]></torrent:magnetURI>
        <torrent:seeds>49</torrent:seeds>
        <torrent:peers>62</torrent:peers>
        <torrent:verified>1</torrent:verified>
        <torrent:fileName>the.walking.dead.s04.special.inside.the.walking.dead.walker.university.hdtv.x264.w4f.rartv.torrent</torrent:fileName>
        <enclosure url="http://torcache.net/torrent/97D44864A862790F992B46B9A8F749AB028826AF.torrent?title=[kickass.to]the.walking.dead.s04.special.inside.the.walking.dead.walker.university.hdtv.x264.w4f.rartv" length="450214536" type="application/x-bittorrent" />
    </item>
    <item>
        <title>Inside the Walking Dead Walker University SDTV [2Maverick] mp4</title>
      <description><![CDATA[
Inside the Walking Dead: Walker University


Air Date: July 15, 2014


Becoming a walker; the creation of each zombie...


::::::::::::::::::::::::::::::::::::::::::::::

SOURCE:

This comes from a (SD) STANDARD DEFINITION source - non HD.

These are provided in SD when no one has yet uploaded a HD version.

::::::::::::::::::::::::::::::::::::::::::::::

COMMENTS:

Comments are appreciated. (I do my best to respond to all comments, however, if it&#039;s an older torrent, I may not see it. In that case, post to my newest torrent for a response)

::::::::::::::::::::::::::::::::::::::::::::::

DETAILS:

Codec: H264 - MPEG-4 AVC
Resolution: 720x404
Frame rate: 29.97

Codec: MPEG AAC Audio 
Channels: Stereo
Sample rate: 48000 Hz]]></description>
        <category>TV</category>
      <author>http://kickass.to/user/2Maverick/</author>        <link>http://kickass.to/inside-the-walking-dead-walker-university-sdtv-2maverick-mp4-t9335733.html</link>
        <guid>http://kickass.to/inside-the-walking-dead-walker-university-sdtv-2maverick-mp4-t9335733.html</guid>
        <pubDate>Wed, 16 Jul 2014 06:56:06 +0000</pubDate>
        <torrent:contentLength>639164504</torrent:contentLength>
        <torrent:infoHash>3F9B1CF145DBEDBE0F1C50688E0B8038971F4E53</torrent:infoHash>
        <torrent:magnetURI><![CDATA[magnet:?xt=urn:btih:3F9B1CF145DBEDBE0F1C50688E0B8038971F4E53&dn=inside+the+walking+dead+walker+university+sdtv+2maverick+mp4&tr=udp%3A%2F%2Fopen.demonii.com%3A1337%2Fannounce]]></torrent:magnetURI>
        <torrent:seeds>50</torrent:seeds>
        <torrent:peers>54</torrent:peers>
        <torrent:verified>1</torrent:verified>
        <torrent:fileName>inside.the.walking.dead.walker.university.sdtv.2maverick.mp4.torrent</torrent:fileName>
        <enclosure url="http://torcache.net/torrent/3F9B1CF145DBEDBE0F1C50688E0B8038971F4E53.torrent?title=[kickass.to]inside.the.walking.dead.walker.university.sdtv.2maverick.mp4" length="639164504" type="application/x-bittorrent" />
    </item>
    <item>
        <title>The Walking Dead Episodes 1-5 [Repack]</title>
      <description><![CDATA[[img]http://view.nfo.so/0/1/1/d1ac8ae322544cd5097298829f9e0b7d.png[/img]]]></description>
        <category>Games - PC</category>
      <author>http://kickass.to/user/AmGaD-SaLaH/</author>        <link>http://kickass.to/the-walking-dead-episodes-1-5-repack-t9327606.html</link>
        <guid>http://kickass.to/the-walking-dead-episodes-1-5-repack-t9327606.html</guid>
        <pubDate>Mon, 14 Jul 2014 01:02:24 +0000</pubDate>
        <torrent:contentLength>2826960896</torrent:contentLength>
        <torrent:infoHash>B6E31A84EF7D88F5A7B129DFD3EB6C23EF4EB402</torrent:infoHash>
        <torrent:magnetURI><![CDATA[magnet:?xt=urn:btih:B6E31A84EF7D88F5A7B129DFD3EB6C23EF4EB402&dn=the+walking+dead+episodes+1+5+repack&tr=udp%3A%2F%2Fopen.demonii.com%3A1337%2Fannounce]]></torrent:magnetURI>
        <torrent:seeds>1</torrent:seeds>
        <torrent:peers>1</torrent:peers>
        <torrent:verified>0</torrent:verified>
        <torrent:fileName>the.walking.dead.episodes.1.5.repack.torrent</torrent:fileName>
        <enclosure url="http://torcache.net/torrent/B6E31A84EF7D88F5A7B129DFD3EB6C23EF4EB402.torrent?title=[kickass.to]the.walking.dead.episodes.1.5.repack" length="2826960896" type="application/x-bittorrent" />
    </item>
    </channel>
</rss>
